<svg width="800" height="800" viewBox="0 0 800 800" fill="none" xmlns="http://www.w3.org/2000/svg">
<path fill-rule="evenodd" clip-rule="evenodd" d="M319.77 316.667H700V416.667H600V566.667H516.667V416.667H319.77C319.77 416.667 283.334 500 200 500C116.667 500 66.667 440.303 66.667 366.667C66.667 293.029 116.667 233.333 200 233.333C283.334 233.333 319.77 316.667 319.77 316.667ZM100 366.667C100 421.897 144.772 466.667 200 466.667C255.229 466.667 300 421.897 300 366.667C300 311.438 255.229 266.667 200 266.667C144.772 266.667 100 311.438 100 366.667Z" fill="#CDCFD6"/>
<path d="M700 316.667V283.333C718.41 283.333 733.333 298.257 733.333 316.667H700ZM319.769 316.667V350C306.523 350 294.534 342.157 289.228 330.02L319.769 316.667ZM700 416.667H733.333C733.333 425.507 729.82 433.987 723.57 440.237C717.32 446.487 708.84 450 700 450V416.667ZM600 416.667H566.666C566.666 407.827 570.18 399.347 576.43 393.097C582.68 386.847 591.16 383.333 600 383.333V416.667ZM600 566.667H633.333C633.333 585.077 618.41 600 600 600V566.667ZM516.666 566.667V600C498.256 600 483.333 585.077 483.333 566.667H516.666ZM516.666 416.667V383.333C535.076 383.333 550 398.257 550 416.667H516.666ZM319.769 416.667L289.228 403.313C294.534 391.177 306.523 383.333 319.769 383.333V416.667ZM700 350H319.769V283.333H700V350ZM666.666 416.667V316.667H733.333V416.667H666.666ZM600 383.333H700V450H600V383.333ZM566.666 566.667V416.667H633.333V566.667H566.666ZM516.666 533.333H600V600H516.666V533.333ZM550 416.667V566.667H483.333V416.667H550ZM319.769 383.333H516.666V450H319.769V383.333ZM200 466.667C229.433 466.667 251.176 452.223 266.813 435.54C274.612 427.217 280.413 418.793 284.24 412.457C286.135 409.317 287.495 406.777 288.33 405.133C288.747 404.317 289.029 403.727 289.179 403.41C289.254 403.25 289.295 403.16 289.303 403.143C289.316 403.117 289.307 403.133 289.303 403.143C289.297 403.157 289.276 403.203 289.265 403.227C289.26 403.24 289.254 403.253 289.248 403.267C289.249 403.263 289.245 403.273 289.248 403.267C289.243 403.277 289.228 403.313 319.769 416.667C350.31 430.02 350.306 430.033 350.3 430.047C350.306 430.037 350.296 430.05 350.3 430.047C350.293 430.067 350.27 430.113 350.26 430.137C350.24 430.18 350.22 430.23 350.193 430.283C350.146 430.393 350.09 430.52 350.02 430.67C349.886 430.967 349.713 431.343 349.5 431.797C349.076 432.697 348.493 433.9 347.753 435.36C346.27 438.273 344.13 442.243 341.306 446.92C335.7 456.207 327.183 468.617 315.456 481.127C292.041 506.11 253.899 533.333 200 533.333V466.667ZM99.9997 366.667C99.9997 395.953 109.882 420.757 126.252 437.993C142.372 454.963 166.713 466.667 200 466.667V533.333C149.953 533.333 107.628 515.19 77.9137 483.903C48.451 452.883 33.333 411.017 33.333 366.667H99.9997ZM200 266.667C166.713 266.667 142.372 278.369 126.252 295.341C109.882 312.578 99.9997 337.38 99.9997 366.667H33.333C33.333 322.317 48.451 280.451 77.9137 249.43C107.628 218.145 149.953 200 200 200V266.667ZM319.769 316.667C289.228 330.02 289.222 330.008 289.228 330.02C289.229 330.024 289.245 330.06 289.248 330.067C289.254 330.081 289.26 330.094 289.265 330.106C289.276 330.13 289.284 330.149 289.29 330.163C289.295 330.172 289.303 330.191 289.29 330.163C289.282 330.145 289.254 330.082 289.179 329.924C289.029 329.605 288.747 329.017 288.33 328.199C287.495 326.556 286.135 324.015 284.24 320.877C280.413 314.539 274.612 306.116 266.813 297.795C251.176 281.11 229.433 266.667 200 266.667V200C253.899 200 292.041 227.223 315.456 252.205C327.183 264.718 335.7 277.127 341.306 286.414C344.13 291.089 346.27 295.059 347.753 297.973C348.493 299.433 349.076 300.636 349.5 301.538C349.713 301.989 349.886 302.367 350.02 302.664C350.09 302.813 350.146 302.941 350.196 303.05C350.22 303.104 350.24 303.153 350.26 303.197C350.27 303.219 350.28 303.239 350.286 303.259C350.283 303.254 350.293 303.268 350.286 303.259C350.293 303.272 350.31 303.313 319.769 316.667ZM200 500C126.362 500 66.6663 440.303 66.6663 366.667H133.333C133.333 403.487 163.181 433.333 200 433.333V500ZM333.333 366.667C333.333 440.303 273.638 500 200 500V433.333C236.819 433.333 266.666 403.487 266.666 366.667H333.333ZM200 233.333C273.638 233.333 333.333 293.029 333.333 366.667H266.666C266.666 329.848 236.819 300 200 300V233.333ZM66.6663 366.667C66.6663 293.029 126.362 233.333 200 233.333V300C163.181 300 133.333 329.848 133.333 366.667H66.6663Z" fill="#CDCFD6"/>
</svg>
