<svg width="800" height="800" viewBox="0 0 800 800" fill="none" xmlns="http://www.w3.org/2000/svg">
<path fill-rule="evenodd" clip-rule="evenodd" d="M300 100C277.019 100 254.262 104.527 233.03 113.321C211.798 122.116 192.507 135.006 176.256 151.256C160.006 167.507 147.116 186.798 138.321 208.03C129.527 229.262 125 252.019 125 275C125 297.981 129.527 320.738 138.321 341.97C147.116 363.202 160.006 382.493 176.256 398.744C192.507 414.994 211.798 427.884 233.03 436.679C254.262 445.474 277.019 450 300 450C346.413 450 390.925 431.563 423.744 398.744C456.563 365.925 475 321.413 475 275C475 228.587 456.563 184.075 423.744 151.256C390.925 118.437 346.413 100 300 100ZM200 275C200 248.478 210.536 223.043 229.289 204.289C248.043 185.536 273.478 175 300 175C326.522 175 351.957 185.536 370.711 204.289C389.464 223.043 400 248.478 400 275C400 301.522 389.464 326.957 370.711 345.711C351.957 364.464 326.522 375 300 375C273.478 375 248.043 364.464 229.289 345.711C210.536 326.957 200 301.522 200 275Z" fill="white"/>
<path d="M212.5 500C162.772 500 115.081 519.754 79.9175 554.917C44.7544 590.08 25 637.772 25 687.5V712.5C25 722.446 28.9509 731.984 35.9835 739.016C43.0161 746.049 52.5544 750 62.5 750C72.4456 750 81.9839 746.049 89.0165 739.016C96.0491 731.984 100 722.446 100 712.5V687.5C100 657.663 111.853 629.048 132.95 607.95C154.048 586.853 182.663 575 212.5 575H387.5C402.274 575 416.903 577.91 430.552 583.564C444.201 589.217 456.603 597.504 467.05 607.95C477.496 618.397 485.783 630.799 491.436 644.448C497.09 658.097 500 672.726 500 687.5V712.5C500 722.446 503.951 731.984 510.984 739.016C518.016 746.049 527.554 750 537.5 750C547.446 750 556.984 746.049 564.016 739.016C571.049 731.984 575 722.446 575 712.5V687.5C575 637.772 555.246 590.08 520.083 554.917C484.919 519.754 437.228 500 387.5 500H212.5ZM562.5 537.5C562.5 527.554 566.451 518.016 573.484 510.983C580.516 503.951 590.054 500 600 500H612.5C655.598 500 696.93 517.12 727.405 547.595C757.879 578.07 775 619.402 775 662.5V712.5C775 722.446 771.049 731.984 764.016 739.016C756.984 746.049 747.446 750 737.5 750C727.554 750 718.016 746.049 710.984 739.016C703.951 731.984 700 722.446 700 712.5V662.5C700 639.294 690.781 617.038 674.372 600.628C657.962 584.219 635.706 575 612.5 575H600C590.054 575 580.516 571.049 573.484 564.016C566.451 556.984 562.5 547.446 562.5 537.5ZM563.65 112C554.487 108.801 544.44 109.279 535.622 113.334C526.803 117.39 519.901 124.706 516.366 133.745C512.83 142.784 512.937 152.842 516.664 161.804C520.391 170.765 527.448 177.933 536.35 181.8C555.109 189.123 571.222 201.937 582.581 218.565C593.94 235.193 600.016 254.862 600.016 275C600.016 295.138 593.94 314.807 582.581 331.435C571.222 348.063 555.109 360.877 536.35 368.2C527.194 371.896 519.865 379.053 515.954 388.12C512.042 397.186 511.865 407.428 515.459 416.625C519.053 425.821 526.13 433.229 535.152 437.24C544.174 441.251 554.414 441.542 563.65 438.05C596.462 425.232 624.643 402.813 644.509 373.723C664.376 344.633 675.004 310.226 675.004 275C675.004 239.774 664.376 205.367 644.509 176.277C624.643 147.187 596.462 124.818 563.65 112Z" fill="white"/>
</svg>
